<svg xmlns="http://www.w3.org/2000/svg" width="121.345" height="24.398" viewBox="0 0 121.345 24.398"><g transform="translate(-345.308 -361.936)"><g transform="translate(418.53 368.14)"><path d="M1182.295,433.307s-2.594,4.979-7.284,6-6.865.21-7.127-1.336a12.856,12.856,0,0,0,2.489-1.992c2.28-1.991,3.785-3.671,2.725-6.315-.917-2.288-5.932.477-6.97,3.642-.77,2.347-.97,3.275-.97,3.275s-3.826,2.935-6,4.192-3.93.262-3.9-1.232a46.53,46.53,0,0,1,.367-6.734c.367-1.756-.76-2.916-2.262-2.235-1.623.735-4.262,3.781-4.472,3.808s-.314-.1-.262-.786a2.126,2.126,0,0,0-2.1-1.939c-1.31.026-4.978,3.485-5.869,4.009s-1.336-.1-.943-1.022a11.3,11.3,0,0,0,.891-3.642c-.1-.629-1.415-1.223-1.887-.507l-3.843,9.084a1.518,1.518,0,0,0,1.382,2.2c2.338.217,2.95-1.294,4.488-3.251s3.7-4.4,4.4-4.262.568.69.384,1.293a21.631,21.631,0,0,0-1.074,3.668c.1.419,2.253,1,3.275.052s4.172-5.041,4.376-5.319c.672-.92.917-.183.681.707a24.476,24.476,0,0,0-.236,6.184c.209.656.524,2.717,5.319,2.044,3.03-.425,8.123-4.926,8.123-4.926a3.6,3.6,0,0,0,2.751,2.935,12.647,12.647,0,0,0,11.529-3.249C1184.47,433.569,1182.295,433.307,1182.295,433.307Zm-14.053.015a7.718,7.718,0,0,1,2.812-2.666c.472-.026.542.29-.192,1.652a8.251,8.251,0,0,1-2.079,2.5c-.212.19-.594.594-.995.541C1167.788,435.348,1167.159,435.314,1168.241,433.322Z" transform="translate(-1134.735 -428.823)" fill="#231f45"/></g><g transform="translate(405.107 367.364)"><path d="M994.346,433.989a5.18,5.18,0,0,1-1.591-.252,3.983,3.983,0,0,1-1.39-.771,3.911,3.911,0,0,1-.974-1.275,3.979,3.979,0,0,1-.37-1.767v-.05a4.474,4.474,0,0,1,.359-1.855,3.538,3.538,0,0,1,1.019-1.326,4.662,4.662,0,0,1,1.569-.808,6.837,6.837,0,0,1,2.006-.278,10.817,10.817,0,0,1,1.938.151,12.939,12.939,0,0,1,1.6.4v-.4a3.542,3.542,0,0,0-.9-2.621,3.439,3.439,0,0,0-2.533-.89,6.505,6.505,0,0,0-1.871.252,9.078,9.078,0,0,0-1.647.681l-.516-1.6a11.371,11.371,0,0,1,1.95-.819,7.616,7.616,0,0,1,2.263-.307,4.741,4.741,0,0,1,3.743,1.439,5.588,5.588,0,0,1,1.21,3.837v7.978h-1.7v-1.944a5.76,5.76,0,0,1-1.625,1.552A4.549,4.549,0,0,1,994.346,433.989Zm.349-1.59a4.347,4.347,0,0,0,1.5-.251,3.752,3.752,0,0,0,1.218-.716,3.4,3.4,0,0,0,.826-1.106,3.292,3.292,0,0,0,.3-1.419V427.7q-.648-.2-1.474-.377a9.192,9.192,0,0,0-1.9-.176,3.854,3.854,0,0,0-2.49.717,2.319,2.319,0,0,0-.883,1.9v.051a2.5,2.5,0,0,0,.235,1.092,2.337,2.337,0,0,0,.636.816,2.93,2.93,0,0,0,.927.5A3.456,3.456,0,0,0,994.7,432.4Z" transform="translate(-990.021 -420.458)" fill="#313f71"/></g><g transform="translate(397.744 367.336)"><path d="M910.634,420.388h1.726V423.8a7.193,7.193,0,0,1,.784-1.489,5.6,5.6,0,0,1,1.075-1.173,4.406,4.406,0,0,1,1.322-.745,4.231,4.231,0,0,1,1.547-.227v2.1h-.135a4.289,4.289,0,0,0-1.781.378,4.054,4.054,0,0,0-1.468,1.137,5.543,5.543,0,0,0-.986,1.881,8.51,8.51,0,0,0-.359,2.587v5.2h-1.726Z" transform="translate(-910.634 -420.159)" fill="#313f71"/></g><g transform="translate(392.007 361.936)"><path d="M848.788,367.566h1.726v13.052h-1.726Zm2.286-5.63,1.463.762-2.2,2.9h-1.389Z" transform="translate(-848.788 -361.936)" fill="#313f71"/></g><g transform="translate(376.97 367.288)"><path d="M686.671,419.915H688.4v2.626a9.969,9.969,0,0,1,.8-1.111,5.308,5.308,0,0,1,.975-.921,4.831,4.831,0,0,1,1.2-.631,4.283,4.283,0,0,1,1.468-.24,4.849,4.849,0,0,1,2.028.454,5.413,5.413,0,0,1,1.782,1.326,6.625,6.625,0,0,1,1.255,2.12,8.106,8.106,0,0,1,.47,2.866v.05a8.125,8.125,0,0,1-.47,2.853,6.706,6.706,0,0,1-1.244,2.134,5.444,5.444,0,0,1-1.77,1.338,4.789,4.789,0,0,1-2.05.467,4.6,4.6,0,0,1-1.479-.227,4.714,4.714,0,0,1-1.21-.606,5.416,5.416,0,0,1-.975-.883,7.782,7.782,0,0,1-.773-1.06v8.216h-1.726ZM692.52,431.5a3.786,3.786,0,0,0,1.58-.341,3.717,3.717,0,0,0,1.3-.985,4.865,4.865,0,0,0,.874-1.578,6.431,6.431,0,0,0,.325-2.121v-.05a6.349,6.349,0,0,0-.325-2.1,4.9,4.9,0,0,0-.885-1.591,3.926,3.926,0,0,0-1.3-1.01,3.59,3.59,0,0,0-1.569-.354,3.524,3.524,0,0,0-1.557.366,4.332,4.332,0,0,0-1.345,1.036,5.042,5.042,0,0,0-.941,1.59,5.718,5.718,0,0,0-.347,2.032v.05a5.9,5.9,0,0,0,.347,2.071,4.867,4.867,0,0,0,.941,1.59,4.4,4.4,0,0,0,1.345,1.023A3.513,3.513,0,0,0,692.52,431.5Z" transform="translate(-686.671 -419.637)" fill="#313f71"/></g><g transform="translate(364.847 367.339)"><path d="M560.765,433.716a6.71,6.71,0,0,1-2.532-.517,7.664,7.664,0,0,1-2.263-1.4l.874-1.389a7.447,7.447,0,0,0,1.961,1.237,5.236,5.236,0,0,0,2.05.429,2.621,2.621,0,0,0,1.726-.555,1.861,1.861,0,0,0,.672-1.515v-.051a1.468,1.468,0,0,0-.236-.833,2.2,2.2,0,0,0-.639-.618,4.881,4.881,0,0,0-.93-.468q-.526-.2-1.087-.378-.672-.227-1.356-.492a5.307,5.307,0,0,1-1.232-.669,3.231,3.231,0,0,1-.9-1.01,3.007,3.007,0,0,1-.347-1.515v-.05a3.91,3.91,0,0,1,.292-1.528,3.405,3.405,0,0,1,.818-1.187,3.64,3.64,0,0,1,1.255-.757,4.6,4.6,0,0,1,1.58-.264,6.433,6.433,0,0,1,2.174.391,7.77,7.77,0,0,1,1.994,1.047l-.784,1.464a7.526,7.526,0,0,0-1.692-.921,4.806,4.806,0,0,0-1.737-.341,2.359,2.359,0,0,0-1.636.543,1.741,1.741,0,0,0-.605,1.35v.051a1.32,1.32,0,0,0,.247.8,2.229,2.229,0,0,0,.661.593,5.6,5.6,0,0,0,.952.455q.538.2,1.121.4.673.227,1.334.5a5.049,5.049,0,0,1,1.2.707,3.31,3.31,0,0,1,.863,1.035,3.124,3.124,0,0,1,.325,1.489v.05a3.988,3.988,0,0,1-.325,1.654,3.654,3.654,0,0,1-2.174,1.995A4.865,4.865,0,0,1,560.765,433.716Z" transform="translate(-555.969 -420.185)" fill="#313f71"/></g><g transform="translate(351.168 367.327)"><path d="M408.485,420.3l1.88.012v2.272a6,6,0,0,1,1.66-1.794,4.4,4.4,0,0,1,2.662-.728,5.2,5.2,0,0,1,2.039.391,4.27,4.27,0,0,1,1.514,1.083,4.8,4.8,0,0,1,.952,1.659,6.522,6.522,0,0,1,.33,2.123v8.1l-1.88-.012V425.8a4.3,4.3,0,0,0-.9-2.877,3.239,3.239,0,0,0-2.589-1.074,3.854,3.854,0,0,0-1.5.28,3.471,3.471,0,0,0-1.209.823,3.736,3.736,0,0,0-.794,1.293,4.719,4.719,0,0,0-.281,1.66v7.456l-1.88-.012Z" transform="translate(-408.485 -420.061)" fill="#313f71"/></g><g transform="translate(345.308 362.567)"><path d="M345.308,368.738h1.972v2.146h-1.972Zm.112,5h1.726v13.052H345.42Z" transform="translate(-345.308 -368.738)" fill="#313f71"/></g></g></svg>