<svg xmlns="http://www.w3.org/2000/svg" width="188.975" height="43.913" viewBox="0 0 188.975 43.913"><g transform="translate(-345.308 -361.936)"><g transform="translate(505.655 397.122)"><path d="M1455.383,605.53h.752v2.964a2.376,2.376,0,0,1,.666-.7,1.817,1.817,0,0,1,1.066-.289,2.151,2.151,0,0,1,.817.147,1.712,1.712,0,0,1,.607.416,1.846,1.846,0,0,1,.381.641,2.438,2.438,0,0,1,.132.821v3.141h-.752v-2.948a1.622,1.622,0,0,0-.362-1.112,1.311,1.311,0,0,0-1.037-.411,1.586,1.586,0,0,0-.6.112,1.4,1.4,0,0,0-.485.323,1.452,1.452,0,0,0-.318.5,1.778,1.778,0,0,0-.113.644v2.89h-.752Z" transform="translate(-1455.383 -605.53)" fill="#231f45"/><path d="M1497.556,624.488a2.581,2.581,0,0,1-1.047-.21,2.653,2.653,0,0,1-.832-.568,2.546,2.546,0,0,1-.547-.831,2.613,2.613,0,0,1-.2-1.012v-.019a2.653,2.653,0,0,1,.2-1.018,2.574,2.574,0,0,1,1.383-1.414,2.638,2.638,0,0,1,1.062-.21,2.607,2.607,0,0,1,1.051.21,2.647,2.647,0,0,1,.836.567,2.583,2.583,0,0,1,.548.831,2.634,2.634,0,0,1,.2,1.013v.02a2.609,2.609,0,0,1-.2,1.018,2.685,2.685,0,0,1-.552.841,2.6,2.6,0,0,1-.842.573A2.65,2.65,0,0,1,1497.556,624.488Zm.021-.675a1.786,1.786,0,0,0,.752-.157,1.833,1.833,0,0,0,.588-.421,1.949,1.949,0,0,0,.381-.616,2.076,2.076,0,0,0,.136-.754v-.019a2.067,2.067,0,0,0-.142-.769,1.939,1.939,0,0,0-.4-.625,1.9,1.9,0,0,0-.6-.426,1.761,1.761,0,0,0-.744-.157,1.782,1.782,0,0,0-.752.157,1.761,1.761,0,0,0-.583.421,1.948,1.948,0,0,0-.376.621,2.09,2.09,0,0,0-.138.758v.02a2.043,2.043,0,0,0,.143.768,1.931,1.931,0,0,0,.39.621,1.883,1.883,0,0,0,.593.421A1.762,1.762,0,0,0,1497.576,623.814Z" transform="translate(-1489.221 -617.23)" fill="#231f45"/><path d="M1541.362,625.956a4.139,4.139,0,0,1-1.214-.176,3.861,3.861,0,0,1-1.085-.529l.342-.587a3.64,3.64,0,0,0,.919.479,3.112,3.112,0,0,0,1.028.166,1.91,1.91,0,0,0,1.34-.454,1.729,1.729,0,0,0,.5-1.345v-.6a3.2,3.2,0,0,1-.812.754,2.1,2.1,0,0,1-1.173.312,2.42,2.42,0,0,1-1.644-.64,2.3,2.3,0,0,1-.733-1.727v-.021a2.374,2.374,0,0,1,.2-1,2.318,2.318,0,0,1,.533-.749,2.372,2.372,0,0,1,.763-.474,2.428,2.428,0,0,1,.881-.167,2.38,2.38,0,0,1,.651.084,2.337,2.337,0,0,1,.538.219,2.266,2.266,0,0,1,.435.323,3.257,3.257,0,0,1,.352.391v-.909h.754v4.178a2.946,2.946,0,0,1-.166,1.032,2.091,2.091,0,0,1-.479.758,2.13,2.13,0,0,1-.832.509A3.388,3.388,0,0,1,1541.362,625.956Zm-.01-2.642a2,2,0,0,0,.695-.121,1.842,1.842,0,0,0,.592-.353,1.807,1.807,0,0,0,.416-.542,1.532,1.532,0,0,0,.157-.695v-.019a1.553,1.553,0,0,0-.157-.705,1.762,1.762,0,0,0-.416-.538,1.926,1.926,0,0,0-.592-.347,2,2,0,0,0-.695-.123,1.876,1.876,0,0,0-.68.123,1.745,1.745,0,0,0-.559.342,1.589,1.589,0,0,0-.376.534,1.721,1.721,0,0,0-.137.7v.019a1.7,1.7,0,0,0,.142.7,1.687,1.687,0,0,0,.381.543,1.788,1.788,0,0,0,.557.352A1.81,1.81,0,0,0,1541.352,623.314Z" transform="translate(-1526.775 -617.23)" fill="#231f45"/><path d="M1585.076,624.652a2.513,2.513,0,0,1-.694-.1,1.8,1.8,0,0,1-.607-.3,1.563,1.563,0,0,1-.426-.495,1.4,1.4,0,0,1-.161-.685v-.019a1.564,1.564,0,0,1,.156-.719,1.412,1.412,0,0,1,.445-.514,2.14,2.14,0,0,1,.685-.312,3.355,3.355,0,0,1,.876-.108,5.4,5.4,0,0,1,.847.059,6.441,6.441,0,0,1,.7.157v-.156a1.281,1.281,0,0,0-.391-1.015,1.611,1.611,0,0,0-1.106-.346,3.173,3.173,0,0,0-.816.1,4.212,4.212,0,0,0-.719.264l-.226-.62a5.273,5.273,0,0,1,.852-.317,3.731,3.731,0,0,1,.988-.12,2.213,2.213,0,0,1,1.634.559,2.012,2.012,0,0,1,.528,1.487v3.091h-.743v-.754a2.4,2.4,0,0,1-.709.6A2.175,2.175,0,0,1,1585.076,624.652Zm.153-.616a2.119,2.119,0,0,0,.653-.1,1.7,1.7,0,0,0,.532-.278,1.345,1.345,0,0,0,.361-.428,1.163,1.163,0,0,0,.132-.55v-.468c-.189-.051-.4-.1-.644-.145a4.459,4.459,0,0,0-.829-.069,1.833,1.833,0,0,0-1.086.278.862.862,0,0,0-.385.735v.021a.868.868,0,0,0,.1.423.922.922,0,0,0,.278.316,1.355,1.355,0,0,0,.4.2A1.716,1.716,0,0,0,1585.229,624.036Z" transform="translate(-1564.728 -617.403)" fill="#231f45"/><path d="M1625.044,619.429h.752v1.32a2.75,2.75,0,0,1,.343-.576,2.3,2.3,0,0,1,.469-.455,1.98,1.98,0,0,1,.578-.288,2.067,2.067,0,0,1,.675-.088v.811h-.059a2.067,2.067,0,0,0-.778.148,1.735,1.735,0,0,0-.64.44,2.1,2.1,0,0,0-.431.728,2.956,2.956,0,0,0-.157,1v2.015h-.752Z" transform="translate(-1600.537 -617.345)" fill="#231f45"/></g><g transform="translate(447.106 397.122)"><path d="M1052.185,616.06a1.982,1.982,0,0,1-.567-.078,1.115,1.115,0,0,1-.754-.7,1.806,1.806,0,0,1-.107-.655v-3.053h-.7v-.664h.7v-1.526h.754v1.526h1.6v.664h-1.6v2.947a.789.789,0,0,0,.235.654.963.963,0,0,0,.616.185,1.59,1.59,0,0,0,.733-.166v.645a1.65,1.65,0,0,1-.416.162A2.085,2.085,0,0,1,1052.185,616.06Z" transform="translate(-1050.053 -608.831)" fill="#231f45"/><path d="M1079.05,622.151a2.01,2.01,0,0,0,.2.714,1.72,1.72,0,0,0,.949.856,1.812,1.812,0,0,0,.636.112,1.949,1.949,0,0,0,.905-.2,2.694,2.694,0,0,0,.689-.519l.471.421a3.112,3.112,0,0,1-.871.69,2.576,2.576,0,0,1-1.213.259,2.528,2.528,0,0,1-.979-.191,2.411,2.411,0,0,1-.8-.537,2.551,2.551,0,0,1-.542-.836,2.809,2.809,0,0,1-.2-1.076,2.923,2.923,0,0,1,.181-1.033,2.611,2.611,0,0,1,.5-.84,2.365,2.365,0,0,1,.769-.564,2.439,2.439,0,0,1,1.97.005,2.19,2.19,0,0,1,.744.573,2.488,2.488,0,0,1,.46.852,3.4,3.4,0,0,1,.157,1.046V622a1.465,1.465,0,0,1-.01.152Zm3.257-.617a2.315,2.315,0,0,0-.147-.647,1.8,1.8,0,0,0-.318-.539,1.456,1.456,0,0,0-.49-.37,1.533,1.533,0,0,0-.661-.137,1.477,1.477,0,0,0-.606.126,1.514,1.514,0,0,0-.5.356,1.939,1.939,0,0,0-.357.54,2.132,2.132,0,0,0-.181.671Z" transform="translate(-1074.208 -617.23)" fill="#231f45"/><path d="M1120.547,619.313h.752v.88a2.378,2.378,0,0,1,.666-.7,1.816,1.816,0,0,1,1.066-.289,2.155,2.155,0,0,1,.818.147,1.715,1.715,0,0,1,.607.416,1.843,1.843,0,0,1,.381.641,2.435,2.435,0,0,1,.131.821v3.141h-.752v-2.948a1.62,1.62,0,0,0-.362-1.112,1.31,1.31,0,0,0-1.037-.411,1.588,1.588,0,0,0-.6.112,1.4,1.4,0,0,0-.485.323,1.451,1.451,0,0,0-.318.5,1.776,1.776,0,0,0-.113.644v2.89h-.752Z" transform="translate(-1110.364 -617.23)" fill="#231f45"/><path d="M1162.655,612.778a2.332,2.332,0,0,1-.891-.176,2.378,2.378,0,0,1-.773-.513,2.526,2.526,0,0,1-.547-.823,2.806,2.806,0,0,1-.205-1.111v-.019a2.821,2.821,0,0,1,.205-1.106,2.486,2.486,0,0,1,.547-.826,2.434,2.434,0,0,1,.773-.519,2.29,2.29,0,0,1,.891-.181,2.238,2.238,0,0,1,.645.088,2.168,2.168,0,0,1,.528.236,2.247,2.247,0,0,1,.426.342,2.946,2.946,0,0,1,.337.411V605.53h.754v7.141h-.754v-1.018a3.8,3.8,0,0,1-.347.431,2.426,2.426,0,0,1-.426.362,2,2,0,0,1-.523.244A2.19,2.19,0,0,1,1162.655,612.778Zm.136-.675a1.7,1.7,0,0,0,.68-.141,1.871,1.871,0,0,0,.586-.4,1.919,1.919,0,0,0,.412-.616,2.025,2.025,0,0,0,.152-.8v-.02a2.026,2.026,0,0,0-.152-.8,1.885,1.885,0,0,0-.412-.611,1.911,1.911,0,0,0-.586-.4,1.7,1.7,0,0,0-.68-.142,1.819,1.819,0,0,0-.7.131,1.621,1.621,0,0,0-.562.381,1.849,1.849,0,0,0-.381.612,2.239,2.239,0,0,0-.142.821v.02a2.207,2.207,0,0,0,.142.811,1.837,1.837,0,0,0,.386.617,1.71,1.71,0,0,0,.568.392A1.752,1.752,0,0,0,1162.791,612.1Z" transform="translate(-1144.322 -605.53)" fill="#231f45"/><path d="M1205.832,622.151a2.015,2.015,0,0,0,.195.714,1.72,1.72,0,0,0,.949.856,1.813,1.813,0,0,0,.636.112,1.95,1.95,0,0,0,.905-.2,2.694,2.694,0,0,0,.689-.519l.47.421a3.113,3.113,0,0,1-.871.69,2.577,2.577,0,0,1-1.213.259,2.527,2.527,0,0,1-.979-.191,2.413,2.413,0,0,1-.8-.537,2.554,2.554,0,0,1-.542-.836,2.809,2.809,0,0,1-.2-1.076,2.918,2.918,0,0,1,.181-1.033,2.606,2.606,0,0,1,.5-.84,2.366,2.366,0,0,1,.769-.564,2.439,2.439,0,0,1,1.97.005,2.187,2.187,0,0,1,.743.573,2.488,2.488,0,0,1,.461.852,3.41,3.41,0,0,1,.157,1.046V622a1.5,1.5,0,0,1-.01.152Zm3.257-.617a2.328,2.328,0,0,0-.146-.647,1.811,1.811,0,0,0-.318-.539,1.455,1.455,0,0,0-.49-.37,1.533,1.533,0,0,0-.661-.137,1.476,1.476,0,0,0-.606.126,1.516,1.516,0,0,0-.5.356,1.939,1.939,0,0,0-.357.54,2.135,2.135,0,0,0-.181.671Z" transform="translate(-1182.677 -617.23)" fill="#231f45"/><path d="M1247.329,619.313h.752v.88a2.376,2.376,0,0,1,.666-.7,1.816,1.816,0,0,1,1.066-.289,2.154,2.154,0,0,1,.818.147,1.71,1.71,0,0,1,.607.416,1.848,1.848,0,0,1,.381.641,2.434,2.434,0,0,1,.132.821v3.141H1251v-2.948a1.62,1.62,0,0,0-.362-1.112,1.31,1.31,0,0,0-1.037-.411,1.59,1.59,0,0,0-.6.112,1.4,1.4,0,0,0-.485.323,1.455,1.455,0,0,0-.317.5,1.776,1.776,0,0,0-.114.644v2.89h-.752Z" transform="translate(-1218.833 -617.23)" fill="#231f45"/><path d="M1289.472,624.488a2.519,2.519,0,0,1-1.032-.21,2.611,2.611,0,0,1-.822-.568,2.574,2.574,0,0,1-.542-.836,2.617,2.617,0,0,1-.2-1.007v-.019a2.689,2.689,0,0,1,.739-1.859,2.585,2.585,0,0,1,.822-.573,2.518,2.518,0,0,1,1.032-.21,2.875,2.875,0,0,1,.656.069,2.427,2.427,0,0,1,.988.479,3.978,3.978,0,0,1,.381.352l-.5.528a3.617,3.617,0,0,0-.661-.538,1.616,1.616,0,0,0-.875-.224,1.7,1.7,0,0,0-.714.152,1.787,1.787,0,0,0-.578.416,1.9,1.9,0,0,0-.381.621,2.123,2.123,0,0,0-.138.768v.02a2.039,2.039,0,0,0,.143.768,1.994,1.994,0,0,0,.39.626,1.775,1.775,0,0,0,1.326.573,1.721,1.721,0,0,0,.866-.215,2.886,2.886,0,0,0,.679-.538l.48.45a3.353,3.353,0,0,1-.866.7A2.4,2.4,0,0,1,1289.472,624.488Z" transform="translate(-1252.67 -617.23)" fill="#231f45"/><path d="M1327.86,606.545h.861v.831h-.861Zm.048,1.937h.754v5.058h-.754Z" transform="translate(-1287.732 -606.398)" fill="#231f45"/><path d="M1344.781,624.652a2.513,2.513,0,0,1-.694-.1,1.8,1.8,0,0,1-.607-.3,1.565,1.565,0,0,1-.426-.495,1.4,1.4,0,0,1-.161-.685v-.019a1.564,1.564,0,0,1,.156-.719,1.412,1.412,0,0,1,.445-.514,2.141,2.141,0,0,1,.685-.312,3.356,3.356,0,0,1,.876-.108,5.4,5.4,0,0,1,.847.059,6.425,6.425,0,0,1,.7.157v-.156a1.28,1.28,0,0,0-.392-1.015,1.611,1.611,0,0,0-1.106-.346,3.174,3.174,0,0,0-.816.1,4.212,4.212,0,0,0-.719.264l-.226-.62a5.28,5.28,0,0,1,.852-.317,3.729,3.729,0,0,1,.988-.12,2.214,2.214,0,0,1,1.634.559,2.012,2.012,0,0,1,.528,1.487v3.091h-.743v-.754a2.4,2.4,0,0,1-.709.6A2.174,2.174,0,0,1,1344.781,624.652Zm.153-.616a2.117,2.117,0,0,0,.653-.1,1.7,1.7,0,0,0,.532-.278,1.352,1.352,0,0,0,.361-.428,1.168,1.168,0,0,0,.131-.55v-.468q-.283-.076-.644-.145a4.455,4.455,0,0,0-.829-.069,1.834,1.834,0,0,0-1.087.278.861.861,0,0,0-.385.735v.021a.87.87,0,0,0,.1.423.921.921,0,0,0,.278.316,1.35,1.35,0,0,0,.4.2A1.716,1.716,0,0,0,1344.934,624.036Z" transform="translate(-1300.594 -617.403)" fill="#231f45"/><path d="M1383.929,624.59a3.241,3.241,0,0,1-1.105-.2,3.414,3.414,0,0,1-.989-.542l.382-.538a3.379,3.379,0,0,0,.856.479,2.539,2.539,0,0,0,.9.166,1.236,1.236,0,0,0,.754-.216.689.689,0,0,0,.293-.587v-.019a.533.533,0,0,0-.1-.324.925.925,0,0,0-.279-.238,2.209,2.209,0,0,0-.405-.181c-.154-.052-.313-.1-.474-.147-.2-.06-.394-.122-.593-.191a2.5,2.5,0,0,1-.538-.259,1.31,1.31,0,0,1-.39-.391,1.053,1.053,0,0,1-.152-.588v-.019a1.377,1.377,0,0,1,.126-.592,1.34,1.34,0,0,1,.357-.46,1.67,1.67,0,0,1,.548-.293,2.252,2.252,0,0,1,.69-.1,3.111,3.111,0,0,1,.949.152,3.538,3.538,0,0,1,.871.405l-.343.568a3.389,3.389,0,0,0-.739-.357,2.332,2.332,0,0,0-.757-.133,1.113,1.113,0,0,0-.714.21.642.642,0,0,0-.265.524v.019a.471.471,0,0,0,.108.309.937.937,0,0,0,.288.23,2.647,2.647,0,0,0,.416.176q.235.078.49.157.292.088.581.2a2.32,2.32,0,0,1,.524.274,1.341,1.341,0,0,1,.376.4,1.094,1.094,0,0,1,.141.576v.02a1.4,1.4,0,0,1-.141.64,1.452,1.452,0,0,1-.381.474,1.686,1.686,0,0,1-.568.3A2.347,2.347,0,0,1,1383.929,624.59Z" transform="translate(-1333.91 -617.35)" fill="#231f45"/><path d="M1415.762,649.731a1.161,1.161,0,0,0,.528-.337.7.7,0,0,0,.127-.514h-.352v-1.028h.9v.881a1.36,1.36,0,0,1-.265.905,1.485,1.485,0,0,1-.821.435Z" transform="translate(-1362.936 -641.74)" fill="#231f45"/></g><g transform="translate(416.837 397.122)"><path d="M840.5,606.545h.861v.831H840.5Zm.049,1.937h.753v5.058h-.753Z" transform="translate(-840.502 -606.398)" fill="#231f45"/><path d="M858.563,612.778a2.329,2.329,0,0,1-.89-.176,2.382,2.382,0,0,1-.773-.513,2.531,2.531,0,0,1-.548-.823,2.83,2.83,0,0,1-.205-1.111v-.019a2.845,2.845,0,0,1,.205-1.106,2.491,2.491,0,0,1,.548-.826,2.438,2.438,0,0,1,.773-.519,2.287,2.287,0,0,1,.89-.181,2.24,2.24,0,0,1,.646.088,2.147,2.147,0,0,1,.528.236,2.255,2.255,0,0,1,.426.342,3.057,3.057,0,0,1,.337.411V605.53h.753v7.141H860.5v-1.018a3.938,3.938,0,0,1-.347.431,2.42,2.42,0,0,1-.425.362,2.021,2.021,0,0,1-.523.244A2.194,2.194,0,0,1,858.563,612.778Zm.137-.675a1.7,1.7,0,0,0,.68-.141,1.874,1.874,0,0,0,.587-.4,1.913,1.913,0,0,0,.411-.616,2.014,2.014,0,0,0,.152-.8v-.02a2.015,2.015,0,0,0-.152-.8,1.879,1.879,0,0,0-.411-.611,1.914,1.914,0,0,0-.587-.4,1.7,1.7,0,0,0-.68-.142,1.819,1.819,0,0,0-.695.131,1.635,1.635,0,0,0-.562.381,1.845,1.845,0,0,0-.381.612,2.228,2.228,0,0,0-.142.821v.02a2.2,2.2,0,0,0,.142.811,1.838,1.838,0,0,0,.386.617,1.706,1.706,0,0,0,.568.392A1.747,1.747,0,0,0,858.7,612.1Z" transform="translate(-853.886 -605.53)" fill="#231f45"/><path d="M901.747,622.151a2.028,2.028,0,0,0,.2.714,1.736,1.736,0,0,0,.4.528,1.759,1.759,0,0,0,.548.328,1.809,1.809,0,0,0,.636.112,1.954,1.954,0,0,0,.906-.2,2.693,2.693,0,0,0,.689-.519l.471.421a3.11,3.11,0,0,1-.871.69,2.58,2.58,0,0,1-1.214.259,2.52,2.52,0,0,1-.977-.191,2.407,2.407,0,0,1-.8-.537,2.569,2.569,0,0,1-.543-.836,2.812,2.812,0,0,1-.2-1.076,2.931,2.931,0,0,1,.181-1.033,2.583,2.583,0,0,1,.5-.84,2.355,2.355,0,0,1,.768-.564,2.44,2.44,0,0,1,1.971.005,2.186,2.186,0,0,1,.744.573,2.483,2.483,0,0,1,.46.852,3.4,3.4,0,0,1,.157,1.046V622a1.485,1.485,0,0,1-.01.152Zm3.257-.617a2.313,2.313,0,0,0-.146-.647,1.806,1.806,0,0,0-.318-.539,1.455,1.455,0,0,0-.49-.37,1.528,1.528,0,0,0-.661-.137,1.473,1.473,0,0,0-.606.126,1.531,1.531,0,0,0-.5.356,1.958,1.958,0,0,0-.357.54,2.184,2.184,0,0,0-.181.671Z" transform="translate(-892.248 -617.23)" fill="#231f45"/><path d="M942.488,624.652a2.515,2.515,0,0,1-.694-.1,1.8,1.8,0,0,1-.607-.3,1.564,1.564,0,0,1-.426-.495,1.4,1.4,0,0,1-.161-.685v-.019a1.564,1.564,0,0,1,.156-.719,1.413,1.413,0,0,1,.445-.514,2.142,2.142,0,0,1,.685-.312,3.357,3.357,0,0,1,.876-.108,5.4,5.4,0,0,1,.847.059,6.438,6.438,0,0,1,.7.157v-.156a1.28,1.28,0,0,0-.392-1.015,1.611,1.611,0,0,0-1.106-.346,3.175,3.175,0,0,0-.816.1,4.213,4.213,0,0,0-.719.264l-.225-.62a5.271,5.271,0,0,1,.852-.317,3.732,3.732,0,0,1,.988-.12,2.214,2.214,0,0,1,1.634.559,2.012,2.012,0,0,1,.528,1.487v3.091h-.744v-.754a2.4,2.4,0,0,1-.709.6A2.174,2.174,0,0,1,942.488,624.652Zm.153-.616a2.118,2.118,0,0,0,.653-.1,1.7,1.7,0,0,0,.532-.278,1.351,1.351,0,0,0,.361-.428,1.167,1.167,0,0,0,.131-.55v-.468c-.189-.051-.4-.1-.644-.145a4.458,4.458,0,0,0-.829-.069,1.834,1.834,0,0,0-1.087.278.861.861,0,0,0-.385.735v.021a.872.872,0,0,0,.1.423.921.921,0,0,0,.278.316,1.354,1.354,0,0,0,.4.2A1.716,1.716,0,0,0,942.641,624.036Z" transform="translate(-926.142 -617.403)" fill="#231f45"/><path d="M981.636,624.59a3.242,3.242,0,0,1-1.106-.2,3.414,3.414,0,0,1-.988-.542l.381-.538a3.384,3.384,0,0,0,.856.479,2.541,2.541,0,0,0,.9.166,1.236,1.236,0,0,0,.754-.216.689.689,0,0,0,.293-.587v-.019a.532.532,0,0,0-.1-.324.925.925,0,0,0-.279-.238,2.209,2.209,0,0,0-.405-.181c-.154-.052-.313-.1-.474-.147-.2-.06-.394-.122-.593-.191a2.5,2.5,0,0,1-.538-.259,1.316,1.316,0,0,1-.39-.391,1.056,1.056,0,0,1-.152-.588v-.019a1.378,1.378,0,0,1,.126-.592,1.341,1.341,0,0,1,.357-.46,1.67,1.67,0,0,1,.548-.293,2.254,2.254,0,0,1,.69-.1,3.109,3.109,0,0,1,.949.152,3.536,3.536,0,0,1,.871.405l-.343.568a3.393,3.393,0,0,0-.738-.357,2.334,2.334,0,0,0-.758-.133,1.113,1.113,0,0,0-.714.21.643.643,0,0,0-.265.524v.019a.471.471,0,0,0,.108.309.935.935,0,0,0,.288.23,2.631,2.631,0,0,0,.416.176q.235.078.49.157.293.088.581.2a2.324,2.324,0,0,1,.524.274,1.341,1.341,0,0,1,.376.4,1.094,1.094,0,0,1,.142.576v.02a1.4,1.4,0,0,1-.142.64,1.449,1.449,0,0,1-.381.474,1.687,1.687,0,0,1-.567.3A2.346,2.346,0,0,1,981.636,624.59Z" transform="translate(-959.458 -617.35)" fill="#231f45"/><path d="M1013.478,649.731a1.16,1.16,0,0,0,.528-.337.7.7,0,0,0,.128-.514h-.352v-1.028h.9v.881a1.361,1.361,0,0,1-.265.905,1.485,1.485,0,0,1-.821.435Z" transform="translate(-988.492 -641.74)" fill="#231f45"/></g><g transform="translate(459.338 371.598)"><path d="M1208.8,435.806s-4.04,7.753-11.344,9.345-10.691.327-11.1-2.081c0,0,.326,0,3.877-3.1s5.894-5.718,4.244-9.834c-1.428-3.563-9.238.743-10.854,5.672-1.2,3.656-1.51,5.1-1.51,5.1s-5.958,4.57-9.345,6.529-6.121.408-6.08-1.918,0-7.753.571-10.487-1.183-4.541-3.523-3.481c-2.528,1.145-6.638,5.889-6.964,5.93s-.49-.163-.408-1.224a3.311,3.311,0,0,0-3.265-3.02c-2.04.041-7.753,5.427-9.141,6.243s-2.081-.163-1.469-1.591,1.551-4.693,1.387-5.672-2.2-1.9-2.938-.789l-5.985,14.146s-1.234,3.115,2.152,3.43c3.641.338,4.594-2.015,6.989-5.062s5.767-6.855,6.856-6.638.884,1.075.6,2.013-1.836,5.06-1.673,5.713,3.509,1.551,5.1.082,6.5-7.851,6.815-8.284c1.047-1.432,1.428-.286,1.061,1.1s-.816,8.229-.367,9.63c.326,1.021.816,4.231,8.284,3.183,4.719-.662,12.65-7.672,12.65-7.672a5.6,5.6,0,0,0,4.285,4.57,19.7,19.7,0,0,0,17.955-5.06C1212.188,436.214,1208.8,435.806,1208.8,435.806Zm-21.886.023c.822-1.513,3.645-4.11,4.38-4.151s.843.451-.3,2.573a12.849,12.849,0,0,1-3.237,3.89c-.331.3-.925.925-1.549.842C1186.209,438.984,1185.23,438.931,1186.915,435.829Z" transform="translate(-1134.735 -428.823)" fill="#231f45"/></g><g transform="translate(438.435 370.389)"><path d="M996.757,441.531a8.066,8.066,0,0,1-2.478-.393,6.2,6.2,0,0,1-2.164-1.2,6.093,6.093,0,0,1-1.517-1.985,6.2,6.2,0,0,1-.576-2.752v-.078a6.967,6.967,0,0,1,.558-2.89,5.509,5.509,0,0,1,1.588-2.065,7.259,7.259,0,0,1,2.443-1.259,10.647,10.647,0,0,1,3.124-.432,16.841,16.841,0,0,1,3.019.236,20.153,20.153,0,0,1,2.5.629v-.625a5.516,5.516,0,0,0-1.4-4.082,5.355,5.355,0,0,0-3.944-1.386,10.133,10.133,0,0,0-2.914.393,14.134,14.134,0,0,0-2.564,1.061l-.8-2.492a17.7,17.7,0,0,1,3.036-1.275,11.859,11.859,0,0,1,3.525-.478,7.384,7.384,0,0,1,5.829,2.241,8.7,8.7,0,0,1,1.885,5.976V441.1h-2.652v-3.027a8.971,8.971,0,0,1-2.53,2.418A7.085,7.085,0,0,1,996.757,441.531Zm.543-2.477a6.77,6.77,0,0,0,2.331-.392,5.842,5.842,0,0,0,1.9-1.115,5.3,5.3,0,0,0,1.287-1.723,5.129,5.129,0,0,0,.469-2.21v-1.878q-1.01-.314-2.3-.587a14.316,14.316,0,0,0-2.957-.274,6,6,0,0,0-3.878,1.116,3.612,3.612,0,0,0-1.375,2.953v.079a3.893,3.893,0,0,0,.366,1.7,3.639,3.639,0,0,0,.991,1.271,4.561,4.561,0,0,0,1.444.783A5.381,5.381,0,0,0,997.3,439.054Z" transform="translate(-990.021 -420.458)" fill="#313f71"/></g><g transform="translate(426.968 370.346)"><path d="M910.634,420.516h2.688v5.307a11.2,11.2,0,0,1,1.222-2.319,8.715,8.715,0,0,1,1.674-1.827,6.86,6.86,0,0,1,2.059-1.16,6.588,6.588,0,0,1,2.409-.353v3.263h-.21a6.679,6.679,0,0,0-2.774.589,6.312,6.312,0,0,0-2.287,1.77,8.631,8.631,0,0,0-1.535,2.929,13.253,13.253,0,0,0-.558,4.03v8.1h-2.688Z" transform="translate(-910.634 -420.159)" fill="#313f71"/></g><g transform="translate(418.034 361.936)"><path d="M848.788,370.7h2.687V391.03h-2.687Zm3.56-8.767,2.278,1.187-3.429,4.514h-2.163Z" transform="translate(-848.788 -361.936)" fill="#313f71"/></g><g transform="translate(394.617 370.271)"><path d="M686.671,420.069h2.687v4.089a15.536,15.536,0,0,1,1.239-1.73,8.266,8.266,0,0,1,1.518-1.435,7.521,7.521,0,0,1,1.867-.983,6.671,6.671,0,0,1,2.286-.374,7.549,7.549,0,0,1,3.158.708,8.429,8.429,0,0,1,2.775,2.065,10.316,10.316,0,0,1,1.954,3.3,12.623,12.623,0,0,1,.733,4.463v.078a12.653,12.653,0,0,1-.733,4.443,10.443,10.443,0,0,1-1.937,3.323,8.478,8.478,0,0,1-2.757,2.084,7.459,7.459,0,0,1-3.193.727,7.161,7.161,0,0,1-2.3-.353,7.339,7.339,0,0,1-1.885-.944,8.432,8.432,0,0,1-1.518-1.376,12.129,12.129,0,0,1-1.2-1.652V449.3h-2.687Zm9.109,18.047a5.9,5.9,0,0,0,2.461-.531,5.788,5.788,0,0,0,2.024-1.534,7.578,7.578,0,0,0,1.361-2.457,10.017,10.017,0,0,0,.506-3.3v-.078a9.887,9.887,0,0,0-.506-3.263,7.636,7.636,0,0,0-1.379-2.478,6.115,6.115,0,0,0-2.024-1.572,5.591,5.591,0,0,0-2.443-.551,5.489,5.489,0,0,0-2.426.57,6.747,6.747,0,0,0-2.094,1.613,7.852,7.852,0,0,0-1.466,2.476,8.9,8.9,0,0,0-.541,3.165v.078a9.192,9.192,0,0,0,.541,3.225,7.579,7.579,0,0,0,1.466,2.476,6.855,6.855,0,0,0,2.094,1.593A5.471,5.471,0,0,0,695.78,438.116Z" transform="translate(-686.671 -419.637)" fill="#313f71"/></g><g transform="translate(375.737 370.35)"><path d="M563.437,441.258a10.452,10.452,0,0,1-3.944-.806,11.936,11.936,0,0,1-3.525-2.182l1.361-2.163a11.6,11.6,0,0,0,3.054,1.927,8.153,8.153,0,0,0,3.193.668,4.082,4.082,0,0,0,2.688-.865,2.9,2.9,0,0,0,1.047-2.359V435.4a2.287,2.287,0,0,0-.367-1.3,3.42,3.42,0,0,0-.995-.963,7.6,7.6,0,0,0-1.448-.728q-.82-.314-1.692-.589-1.047-.354-2.112-.766a8.262,8.262,0,0,1-1.919-1.042,5.032,5.032,0,0,1-1.4-1.574,4.682,4.682,0,0,1-.541-2.359V426a6.086,6.086,0,0,1,.454-2.38,5.3,5.3,0,0,1,1.273-1.848,5.668,5.668,0,0,1,1.955-1.18,7.159,7.159,0,0,1,2.46-.412,10.02,10.02,0,0,1,3.386.61,12.1,12.1,0,0,1,3.106,1.631l-1.221,2.28a11.72,11.72,0,0,0-2.635-1.435,7.485,7.485,0,0,0-2.7-.531,3.674,3.674,0,0,0-2.548.846,2.711,2.711,0,0,0-.942,2.1v.079a2.056,2.056,0,0,0,.384,1.238,3.472,3.472,0,0,0,1.029.923,8.72,8.72,0,0,0,1.483.708q.838.316,1.745.63,1.047.354,2.077.786a7.862,7.862,0,0,1,1.867,1.1,5.155,5.155,0,0,1,1.344,1.612,4.865,4.865,0,0,1,.506,2.32v.078a6.21,6.21,0,0,1-.506,2.576,5.691,5.691,0,0,1-3.386,3.106A7.576,7.576,0,0,1,563.437,441.258Z" transform="translate(-555.969 -420.185)" fill="#313f71"/></g><g transform="translate(354.434 370.332)"><path d="M408.485,420.432l2.929.019v3.539A9.343,9.343,0,0,1,414,421.2a6.856,6.856,0,0,1,4.145-1.134,8.1,8.1,0,0,1,3.176.609,6.65,6.65,0,0,1,2.357,1.687,7.468,7.468,0,0,1,1.483,2.584,10.159,10.159,0,0,1,.514,3.306v12.621l-2.929-.019V429a6.7,6.7,0,0,0-1.407-4.481,5.044,5.044,0,0,0-4.031-1.673,6,6,0,0,0-2.339.436,5.4,5.4,0,0,0-1.883,1.282,5.819,5.819,0,0,0-1.236,2.013,7.351,7.351,0,0,0-.437,2.586v11.612l-2.929-.019Z" transform="translate(-408.485 -420.061)" fill="#313f71"/></g><g transform="translate(345.308 362.919)"><path d="M345.308,368.738h3.071v3.342h-3.071Zm.174,7.785h2.687v20.327h-2.687Z" transform="translate(-345.308 -368.738)" fill="#313f71"/></g></g></svg>