<svg xmlns="http://www.w3.org/2000/svg" width="11.593" height="12" viewBox="0 0 11.593 12"><g transform="translate(-132.157 -1341)"><g transform="translate(135.157 1341)" fill="#fff" stroke="#707070" stroke-width="1"><circle cx="3" cy="3" r="3" stroke="none"/><circle cx="3" cy="3" r="2.5" fill="none"/></g><g transform="translate(132.157 1347.305)" fill="#fff" stroke-linecap="round"><path d="M 11.04518699645996 5.19491720199585 L 0.5423750281333923 5.19491720199585 C 0.6078065037727356 4.685270309448242 0.7737804651260376 3.858154058456421 1.193959832191467 3.044797420501709 C 2.066299915313721 1.356187462806702 3.603449821472168 0.4999974071979523 5.762710094451904 0.4999974071979523 C 7.937069892883301 0.4999974071979523 9.491430282592773 1.367507457733154 10.38261985778809 3.078437328338623 C 10.8026237487793 3.884782314300537 10.97484588623047 4.692561626434326 11.04518699645996 5.19491720199585 Z" stroke="none"/><path d="M 5.762710094451904 0.999997615814209 C 3.817669868469238 0.999997615814209 2.434889793395996 1.755747318267822 1.652779579162598 3.246257305145264 C 1.38718318939209 3.752418041229248 1.229485511779785 4.267911911010742 1.13593864440918 4.69491720199585 L 10.44296264648438 4.69491720199585 C 10.3475170135498 4.28504467010498 10.19202518463135 3.79486083984375 9.939169883728027 3.309427499771118 C 9.140959739685059 1.776997327804565 7.735799789428711 0.999997615814209 5.762710094451904 0.999997615814209 M 5.762710094451904 -2.384185791015625e-06 C 11.49098014831543 -2.384185791015625e-06 11.59321975708008 5.69491720199585 11.59321975708008 5.69491720199585 L 0 5.69491720199585 C 0 5.69491720199585 0.03444004058837891 -2.384185791015625e-06 5.762710094451904 -2.384185791015625e-06 Z" stroke="none" fill="#707070"/></g></g></svg>