<svg xmlns="http://www.w3.org/2000/svg" width="12.387" height="15.201" viewBox="0 0 12.387 15.201"><g transform="translate(-1130.307 -184.9)"><path d="M8.548,0c-4.112,0-6.3,2.635-6.3,5.508A4.024,4.024,0,0,0,4.186,9.028c.34.153.3-.034.588-1.153a.266.266,0,0,0-.064-.261C3.006,5.644,4.378,1.593,8.3,1.593c5.683,0,4.621,7.864.989,7.864A1.341,1.341,0,0,1,7.88,7.813a17.809,17.809,0,0,0,.791-3.028c0-1.968-2.931-1.676-2.931.931a3.154,3.154,0,0,0,.285,1.349s-.943,3.81-1.118,4.522a10.111,10.111,0,0,0,.069,3.324.1.1,0,0,0,.18.046,11.786,11.786,0,0,0,1.553-2.924c.116-.428.593-2.166.593-2.166A2.591,2.591,0,0,0,9.488,10.91c2.873,0,4.949-2.525,4.949-5.658C14.427,2.248,11.856,0,8.548,0Z" transform="translate(1128.156 185)" fill="#f20909" stroke="#666e80" stroke-miterlimit="10" stroke-width="0.2"/></g></svg>