<svg xmlns="http://www.w3.org/2000/svg" width="21.286" height="20.822" viewBox="0 0 21.286 20.822"><g transform="translate(-483 -504.975)"><path d="M.114,1.729c.115.1.235.193.347.293C1.326.985,2.186-.056,3.047-1.091c-.08-.071-.158-.139-.241-.208C1.91-.288,1.017.718.114,1.729M19.607-3.755c-1.235-.953-2.507-.663-3.728-.636a3.991,3.991,0,0,0,3.728.636M8.6-13c.789-1.122.71-3.4-.217-4.19A10.742,10.742,0,0,0,8.6-13m2.73,7.967C10.367-6.187,9.4-7.333,8.464-8.45,7.7-6.89,6.9-5.232,6.1-3.593c1.781-.5,3.529-.974,5.234-1.44M9.91-15.691c-.185,1.383-.4,2.761-.539,4.148a2.833,2.833,0,0,0,.165,1.417,9.1,9.1,0,0,0,3.657,4.473,1.941,1.941,0,0,0,.925.2c1.5.009,3.018-.082,4.511,0,1.014.052,1.47.585,1.484,1.383.036,1.236-.455,1.76-1.7,1.707A12.982,12.982,0,0,1,13.5-3.824,1.8,1.8,0,0,0,12.427-4q-3.276.72-6.533,1.558a1.825,1.825,0,0,0-.834.662C4.083-.485,3.2.9,2.149,2.126a1.967,1.967,0,0,1-2.591.648c-.7-.327-.92-.753-.555-1.414A5.483,5.483,0,0,1,.3-.288c.979-.773,2.077-1.38,3.112-2.076a1.932,1.932,0,0,0,.653-.6c1.16-2.24,2.31-4.489,3.408-6.767a2.2,2.2,0,0,0,.1-1.2c-.219-1.729-.583-3.445-.7-5.174-.077-1.291.442-1.722,1.54-1.7.874.015,1.38.64,1.432,1.759.008.12,0,.233,0,.353.015,0,.039.008.061.008" transform="translate(484.171 522.781)" fill="#c14242" fill-rule="evenodd"/></g></svg>