<svg xmlns="http://www.w3.org/2000/svg" width="13" height="14.38" viewBox="0 0 13 14.38"><g transform="translate(-436 -1382.5)"><g transform="translate(436 1382.5)" fill="#fff" stroke-linecap="round" stroke-linejoin="round"><path d="M 0.5000091791152954 13.20412254333496 L 0.5 2.000002861022949 C 0.5 1.172902822494507 1.172899961471558 0.5000028610229492 2 0.5000028610229492 L 11 0.5000028610229492 C 11.82709980010986 0.5000028610229492 12.5 1.172902822494507 12.5 2.000002861022949 L 12.5 8.000002861022949 C 12.5 8.827102661132812 11.82709980010986 9.500002861022949 11 9.500002861022949 L 3.128079891204834 9.500002861022949 L 2.841650009155273 9.500002861022949 L 2.696759939193726 9.747082710266113 C 1.965585231781006 10.99398326873779 1.09212338924408 12.37787437438965 0.5000091791152954 13.20412254333496 Z" stroke="none"/><path d="M 2 1.000002861022949 C 1.448599815368652 1.000002861022949 1 1.448602676391602 1 2.000002861022949 L 1 11.55893516540527 C 1.41822624206543 10.90555763244629 1.866959571838379 10.17367362976074 2.265449523925781 9.494163513183594 C 2.44495964050293 9.188072204589844 2.773240089416504 9.000002861022949 3.128080368041992 9.000002861022949 L 11 9.000002861022949 C 11.55140018463135 9.000002861022949 12 8.551403045654297 12 8.000002861022949 L 12 2.000002861022949 C 12 1.448602676391602 11.55140018463135 1.000002861022949 11 1.000002861022949 L 2 1.000002861022949 M 2 2.86102294921875e-06 L 11 2.86102294921875e-06 C 12.10457038879395 2.86102294921875e-06 13 0.8954324722290039 13 2.000002861022949 L 13 8.000002861022949 C 13 9.104572296142578 12.10457038879395 10.00000286102295 11 10.00000286102295 L 3.128080368041992 10.00000286102295 C 3.128080368041992 10.00000286102295 0.5596323013305664 14.38031959533691 0.07743740081787109 14.38031959533691 C 0.02748298645019531 14.38031959533691 0 14.333420753479 0 14.22973251342773 L 0 2.000002861022949 C 0 0.8954324722290039 0.8954296112060547 2.86102294921875e-06 2 2.86102294921875e-06 Z" stroke="none" fill="#0069b4"/></g></g></svg>