<svg xmlns="http://www.w3.org/2000/svg" width="13.948" height="11" viewBox="0 0 13.948 11"><g transform="translate(-810.001 -339)"><path d="M13.562.2a5.8,5.8,0,0,1-1.817.674A2.892,2.892,0,0,0,9.653,0,2.818,2.818,0,0,0,6.8,2.776a2.707,2.707,0,0,0,.079.636,8.217,8.217,0,0,1-3.256-.835A8.2,8.2,0,0,1,.971.508,2.7,2.7,0,0,0,.584,1.9,2.751,2.751,0,0,0,1.857,4.214a2.908,2.908,0,0,1-1.3-.347V3.9A2.8,2.8,0,0,0,2.853,6.624a2.937,2.937,0,0,1-.754.1,2.819,2.819,0,0,1-.538-.051A2.856,2.856,0,0,0,4.234,8.6,5.847,5.847,0,0,1,.68,9.794,5.932,5.932,0,0,1,0,9.75,8.277,8.277,0,0,0,4.384,11a7.968,7.968,0,0,0,7.5-4.833A7.938,7.938,0,0,0,12.525,3.1c0-.12,0-.24-.008-.359A5.716,5.716,0,0,0,13.948,1.3a5.806,5.806,0,0,1-1.644.438A2.8,2.8,0,0,0,13.562.2Z" transform="translate(810.001 339)" fill="#fff"/></g></svg>