<svg xmlns="http://www.w3.org/2000/svg" width="14.735" height="15" viewBox="0 0 14.735 15">
  <g id="Group_254" data-name="Group 254" transform="translate(-1233 -40)">
    <path id="instagram-icon" d="M7.93,3.654A3.806,3.806,0,0,0,4.153,7.5a3.778,3.778,0,1,0,7.554,0A3.806,3.806,0,0,0,7.93,3.654ZM7.93,10a2.5,2.5,0,1,1,2.456-2.5A2.483,2.483,0,0,1,7.93,10Zm4.813-6.5a.881.881,0,1,1-.881-.9A.887.887,0,0,1,12.743,3.5Zm2.5.91a4.484,4.484,0,0,0-1.19-3.143A4.345,4.345,0,0,0,10.968.053c-1.216-.07-4.862-.07-6.078,0A4.339,4.339,0,0,0,1.8,1.261,4.5,4.5,0,0,0,.613,4.4c-.069,1.238-.069,4.95,0,6.189A4.484,4.484,0,0,0,1.8,13.736a4.351,4.351,0,0,0,3.087,1.212c1.216.07,4.862.07,6.078,0a4.317,4.317,0,0,0,3.087-1.212,4.514,4.514,0,0,0,1.19-3.143C15.313,9.354,15.313,5.646,15.244,4.407Zm-1.571,7.514a2.509,2.509,0,0,1-1.4,1.426,15.951,15.951,0,0,1-4.342.3,16.077,16.077,0,0,1-4.342-.3,2.509,2.509,0,0,1-1.4-1.426,16.825,16.825,0,0,1-.3-4.422,16.956,16.956,0,0,1,.3-4.422,2.509,2.509,0,0,1,1.4-1.426,15.952,15.952,0,0,1,4.342-.3,16.076,16.076,0,0,1,4.342.3,2.509,2.509,0,0,1,1.4,1.426,16.825,16.825,0,0,1,.3,4.422A16.815,16.815,0,0,1,13.673,11.922Z" transform="translate(1232.439 40)" fill="#fff"/>
  </g>
</svg>
