<svg xmlns="http://www.w3.org/2000/svg" width="39.584" height="46" viewBox="0 0 39.584 46">
  <g id="Group_223" data-name="Group 223" transform="translate(-353.878 -2754.976)">
    <path id="Path_24" data-name="Path 24" d="M375.283,343.432H371.5c-.021-1.589-.052-2.461-.058-2.638.02-.371.121-3.169-1.225-4.607a2.688,2.688,0,0,0-2.038-.867,3.119,3.119,0,0,0-2.263.887v-.634c0-.213-.12-5.2-3.594-5.459a2.979,2.979,0,0,0-2.342.788,3.351,3.351,0,0,0-.393.444,5.166,5.166,0,0,0-1.176-2.534,3.127,3.127,0,0,0-2.359-.984,2.97,2.97,0,0,0-2.234.935,5.063,5.063,0,0,0-1.148,2.432,3.447,3.447,0,0,0-2.658-1.081,3.213,3.213,0,0,0-2.432,1.024c-1.64,1.739-1.465,5.117-1.457,5.222v7.073h-8.111a.658.658,0,0,0-.659.659v17.04a.658.658,0,0,0,.659.659h.546c.112.364.23.729.363,1.1a30.568,30.568,0,0,0,5.054,8.941l.539.727a.658.658,0,1,0,1.059-.781l-.179-.243-.36-.487a29.1,29.1,0,0,1-4.874-8.6c-.078-.222-.153-.44-.223-.658s-.138-.44-.2-.659-.124-.438-.178-.658a24.248,24.248,0,0,1-.647-4.168c-.157-2.012.159-3.519.89-4.243a2.12,2.12,0,0,1,1.781-.525c1.108.1,1.87,1.6,2.112,2.592a43.093,43.093,0,0,1,.849,4.287l.1.635c.125.786.17,1.191.189,1.423.008.084.012.147.015.2a1.482,1.482,0,0,0,.088.462c.027.078.059.166.108.291a.71.71,0,0,0,.408.368l.005,0a10.94,10.94,0,0,1,3.832,2.323h0c.045.045.085.092.129.137a5.477,5.477,0,0,1,1.613,3.345.658.658,0,0,0,.656.6.445.445,0,0,0,.058,0,.657.657,0,0,0,.6-.713,6.818,6.818,0,0,0-2.128-4.3h0a10.389,10.389,0,0,0-1.772-1.389h21.07a29.077,29.077,0,0,1-3.343,9.644.658.658,0,0,0,.554,1.016.652.652,0,0,0,.551-.3,29.658,29.658,0,0,0,3.582-10.36h4.426a.658.658,0,0,0,.658-.659v-17.04a.658.658,0,0,0-.658-.659m-.659,17.041H346.157c-.016-.24-.057-.668-.211-1.631l-.1-.632a43.652,43.652,0,0,0-.87-4.393c-.307-1.254-1.343-3.42-3.277-3.59a3.387,3.387,0,0,0-2.821.9c-.077.076-.135.166-.2.248v-6.627h35.951Zm-7.842-23.279a1.82,1.82,0,0,1,1.4-.558,1.4,1.4,0,0,1,1.076.449c.848.9.917,2.949.87,3.66a.645.645,0,0,0,0,.07c0,.02.035.877.059,2.617H365.92v-3.587a4.359,4.359,0,0,1,.862-2.651m-5.9-5.329a1.7,1.7,0,0,1,1.35-.437c2.275.167,2.374,4.127,2.374,4.156v4.225c-.009.283,0,.466,0,.484v3.139h-4.842v-8.176a5.384,5.384,0,0,1,1.118-3.391m-6.1-2.2a1.672,1.672,0,0,1,1.278-.525,1.831,1.831,0,0,1,1.4.571c.919.97,1.025,3,.988,3.73v9.988h-4.653V333.358c-.033-.7.08-2.742.986-3.69m-7.336,6.654c-.045-.82.064-3.184,1.1-4.283a1.922,1.922,0,0,1,1.473-.61,2.16,2.16,0,0,1,1.7.66,3.651,3.651,0,0,1,.764,2.152,5.463,5.463,0,0,1,0,.828c0,.021,0,.044,0,.065v8.3h-5.034Z" transform="translate(17.021 2427.649)" fill="#0085de" stroke="rgba(0,0,0,0)" stroke-width="1"/>
    <path id="Path_25" data-name="Path 25" d="M353.385,347.5c-.214-.061-.432-.11-.65-.158l-.033.1.019-.142c-.191-.043-.383-.085-.571-.14a1.68,1.68,0,0,1-.886-.5.811.811,0,0,1-.126-.725,1.062,1.062,0,0,1,.623-.7,2.372,2.372,0,0,1,1.659-.052.5.5,0,0,1,.284.325.658.658,0,1,0,1.263-.369A1.8,1.8,0,0,0,354,344a2.565,2.565,0,0,0-.776-.224V342.75a.659.659,0,0,0-1.318,0v1.08a4,4,0,0,0-.623.179,2.373,2.373,0,0,0-1.417,1.578,2.12,2.12,0,0,0,.355,1.886,2.887,2.887,0,0,0,1.562.959c.214.061.433.11.651.158l.033-.108-.019.145c.19.044.383.085.57.139a1.687,1.687,0,0,1,.886.5.812.812,0,0,1,.128.725,1.064,1.064,0,0,1-.624.7,2.379,2.379,0,0,1-1.659.052.5.5,0,0,1-.284-.325.658.658,0,1,0-1.263.371,1.812,1.812,0,0,0,.964,1.136,2.481,2.481,0,0,0,.741.219v1.12a.659.659,0,1,0,1.318,0V352.11a4.133,4.133,0,0,0,.659-.186,2.377,2.377,0,0,0,1.417-1.577,2.127,2.127,0,0,0-.355-1.886,2.9,2.9,0,0,0-1.563-.96" transform="translate(21.102 2432.333)" fill="#0085de" stroke="rgba(0,0,0,0)" stroke-width="1"/>
  </g>
</svg>
