<svg xmlns="http://www.w3.org/2000/svg" width="69.429" height="69.429" viewBox="0 0 69.429 69.429"><path d="M0,69.429H69.429V0H0Z" fill="#0069b4" fill-rule="evenodd"/><g transform="translate(8.123 48.19)"><path d="M4.644,2.361a2.007,2.007,0,0,1,1.572.713l.08.11,1.245-.937L7.454,2.13A3.758,3.758,0,0,0,4.5.658,3.808,3.808,0,0,0,.752,4.517,3.8,3.8,0,0,0,4.5,8.379,3.719,3.719,0,0,0,7.437,6.9l.084-.11L6.288,5.842,6.2,5.975a1.857,1.857,0,0,1-1.559.694A1.99,1.99,0,0,1,2.8,4.517,2,2,0,0,1,4.644,2.361" transform="translate(-0.752 -0.656)" fill="#fefefe" fill-rule="evenodd"/><path d="M17.876,6.668a2.021,2.021,0,0,1-1.859-2.151,2.024,2.024,0,0,1,1.859-2.156,2.031,2.031,0,0,1,1.872,2.156,2.028,2.028,0,0,1-1.872,2.151m0-6.01a3.89,3.89,0,0,0-3.909,3.859,3.909,3.909,0,0,0,7.817,0A3.891,3.891,0,0,0,17.876.658" transform="translate(-5.55 -0.656)" fill="#fefefe" fill-rule="evenodd"/><path d="M44.282,6.668a2.023,2.023,0,0,1-1.863-2.151,1.885,1.885,0,1,1,3.731,0,2.024,2.024,0,0,1-1.867,2.151m0-6.01a3.891,3.891,0,0,0-3.912,3.859,3.908,3.908,0,0,0,7.815,0,3.889,3.889,0,0,0-3.9-3.859" transform="translate(-15.134 -0.656)" fill="#fefefe" fill-rule="evenodd"/><path d="M59.956.763c-.033.011.111-.025.111-.025a3.418,3.418,0,0,1,.66-.08,2.022,2.022,0,0,1,.332.012A3.27,3.27,0,0,1,64.045,4.2V8.226H62.081V4.24a1.612,1.612,0,0,0-1.555-1.834,1.693,1.693,0,0,0-1.705,1.54v4.28H56.857V.805l.26.185a2.171,2.171,0,0,0,1.072.29,2.416,2.416,0,0,0,.953-.208s.6-.246.814-.31" transform="translate(-21.12 -0.655)" fill="#fefefe" fill-rule="evenodd"/><path d="M75.808,6.668a1.964,1.964,0,0,1-1.689-2.151,1.747,1.747,0,1,1,3.4,0,1.967,1.967,0,0,1-1.708,2.151Zm1.465,1.246a2.235,2.235,0,0,1,.857-.178,2.093,2.093,0,0,1,1.358.5l0-7.429-.249.185a2.236,2.236,0,0,1-1.078.29,2.336,2.336,0,0,1-.952-.208s-.055-.027-.132-.059c-.056-.017-.373-.162-.471-.2-.018,0-.151-.038-.2-.051a4.627,4.627,0,0,0-.578-.093c-.065,0-.12-.01-.182-.01h-.037a3.717,3.717,0,0,0-3.549,3.859A3.718,3.718,0,0,0,75.615,8.38a3.149,3.149,0,0,0,1.4-.323Z" transform="translate(-26.641 -0.656)" fill="#fefefe" fill-rule="evenodd"/><path d="M32.269,3.946A1.258,1.258,0,0,1,33.282,2.71a1.518,1.518,0,0,1,1.424.511V.715a3.912,3.912,0,0,0-.621-.057A3.06,3.06,0,0,0,32.7.991l-.177.092a2.053,2.053,0,0,1-.889.2,2.092,2.092,0,0,1-1.076-.3L30.308.806v7.42h1.961Z" transform="translate(-11.482 -0.656)" fill="#fefefe" fill-rule="evenodd"/></g></svg>