<svg xmlns="http://www.w3.org/2000/svg" width="90" height="90" viewBox="0 0 90 90">
  <g id="Brand-_-Logo-_-Main" data-name="Brand-/-Logo-/-Main" transform="translate(55 -55)">
    <g id="Group-15" transform="translate(-55 55)">
      <path id="Fill-1" d="M0,90H90V0H0Z" fill="#fff" fill-rule="evenodd"/>
      <g id="Group-14" transform="translate(10.48 62.504)">
        <path id="Fill-2" d="M5.774,2.856a2.589,2.589,0,0,1,2.028.92l.1.142L9.511,2.708,9.4,2.557A4.849,4.849,0,0,0,5.582.658,4.913,4.913,0,0,0,.752,5.637a4.908,4.908,0,0,0,4.83,4.983,4.8,4.8,0,0,0,3.8-1.908l.109-.142L7.895,7.347l-.109.171a2.4,2.4,0,0,1-2.012.9A2.567,2.567,0,0,1,3.4,5.637,2.578,2.578,0,0,1,5.774,2.856" transform="translate(-0.752 -0.656)" fill="#0069b4" fill-rule="evenodd"/>
        <path id="Fill-4" d="M19.011,8.412a2.608,2.608,0,0,1-2.4-2.775,2.611,2.611,0,0,1,2.4-2.781,2.62,2.62,0,0,1,2.416,2.781,2.617,2.617,0,0,1-2.416,2.775m0-7.754a5.019,5.019,0,0,0-5.043,4.979,5.043,5.043,0,0,0,10.085,0A5.021,5.021,0,0,0,19.011.658" transform="translate(-3.028 -0.656)" fill="#0069b4" fill-rule="evenodd"/>
        <path id="Fill-6" d="M45.417,8.412a2.61,2.61,0,0,1-2.4-2.775,2.432,2.432,0,1,1,4.814,0,2.611,2.611,0,0,1-2.409,2.775m0-7.754a5.021,5.021,0,0,0-5.048,4.979,5.042,5.042,0,0,0,10.083,0A5.018,5.018,0,0,0,45.417.658" transform="translate(-7.575 -0.656)" fill="#0069b4" fill-rule="evenodd"/>
        <path id="Fill-8" d="M60.855.794C60.812.809,61,.762,61,.762a4.41,4.41,0,0,1,.852-.1,2.609,2.609,0,0,1,.429.015c2.279.165,3.851,1.991,3.851,4.56v5.19H63.6V5.281A2.079,2.079,0,0,0,61.59,2.914,2.184,2.184,0,0,0,59.39,4.9v5.523H56.857V.849l.335.239a2.8,2.8,0,0,0,1.383.375A3.118,3.118,0,0,0,59.8,1.194s.768-.318,1.05-.4" transform="translate(-10.419 -0.655)" fill="#0069b4" fill-rule="evenodd"/>
        <path id="Fill-10" d="M76.894,8.412a2.534,2.534,0,0,1-2.18-2.775,2.254,2.254,0,1,1,4.384,0,2.537,2.537,0,0,1-2.2,2.775Zm1.89,1.608a2.884,2.884,0,0,1,1.106-.229,2.7,2.7,0,0,1,1.752.643l0-9.585-.321.239a2.885,2.885,0,0,1-1.391.374A3.015,3.015,0,0,1,78.7,1.194s-.071-.035-.17-.076c-.072-.022-.481-.209-.607-.261-.023,0-.195-.049-.255-.066a5.97,5.97,0,0,0-.746-.12c-.084,0-.155-.014-.234-.014h-.047a4.8,4.8,0,0,0-4.579,4.979,4.8,4.8,0,0,0,4.579,4.984,4.063,4.063,0,0,0,1.8-.417Z" transform="translate(-13.038 -0.656)" fill="#0069b4" fill-rule="evenodd"/>
        <path id="Fill-12" d="M32.838,4.9a1.623,1.623,0,0,1,1.307-1.6,1.958,1.958,0,0,1,1.837.659V.731a5.047,5.047,0,0,0-.8-.073,3.949,3.949,0,0,0-1.782.429l-.228.118a2.649,2.649,0,0,1-1.147.257,2.7,2.7,0,0,1-1.388-.385L30.308.85v9.573h2.53Z" transform="translate(-5.855 -0.656)" fill="#0069b4" fill-rule="evenodd"/>
      </g>
    </g>
  </g>
</svg>
